# Exported from Wings 3D 1.0.2
mtllib Bullet.mtl
o cube2
#9 vertices, 9 faces
v -1.1102230e-16 -1.41421356 3.14576386
v -1.41421356 1.1102230e-16 3.14576386
v 1.1102230e-16 1.41421356 3.14576386
v 1.41421356 -1.1102230e-16 3.14576386
v -1.1102230e-16 -1.41421356 -1.00000000
v -1.41421356 1.1102230e-16 -1.00000000
v 1.1102230e-16 1.41421356 -1.00000000
v 1.41421356 -1.1102230e-16 -1.00000000
v 0.0000000e+0 0.0000000e+0 -2.67393360
vn 3.9350953e-17 -0.93157412 -0.36355146
vn -0.93157412 7.8701905e-17 -0.36355146
vn -3.9350953e-17 0.93157412 -0.36355146
vn 0.93157412 -7.8701905e-17 -0.36355146
vn 0.0000000e+0 0.0000000e+0 -1.00000000
vn 0.0000000e+0 0.0000000e+0 1.00000000
vn 7.8504623e-17 -1.00000000 -2.7731285e-18
vn 7.8504623e-17 -1.00000000 -2.7731285e-18
vn 0.0000000e+0 0.0000000e+0 1.00000000
vn -1.00000000 1.5700925e-16 -2.7731285e-18
vn -1.00000000 1.5700925e-16 -2.7731285e-18
vn 0.0000000e+0 0.0000000e+0 1.00000000
vn -7.8504623e-17 1.00000000 -2.7731285e-18
vn -7.8504623e-17 1.00000000 -2.7731285e-18
vn 0.0000000e+0 0.0000000e+0 1.00000000
vn 1.00000000 -1.5700925e-16 -2.7731285e-18
vn 1.00000000 -1.5700925e-16 -2.7731285e-18
g cube2_bullet
usemtl bullet
f 1//6 4//15 3//12 2//9
f 1//7 5//1 8//4 4//17
f 2//11 6//2 5//1 1//8
f 3//14 7//3 6//2 2//10
f 4//16 8//4 7//3 3//13
f 5//1 9//5 8//4
f 6//2 9//5 5//1
f 7//3 9//5 6//2
f 8//4 9//5 7//3
