# Blender v2.78 (sub 0) OBJ File: 'VFXMeshParticles.blend'
# www.blender.org
mtllib VFXMeshParticle05.mtl
o VFXMeshParticle05_GD_mesh.001
v 0.000000 0.553536 -0.000000
v -0.000000 -0.378988 0.659394
v 0.571052 -0.378988 -0.329697
v -0.571052 -0.378988 -0.329697
vt 0.0000 0.0000
vt 1.0000 0.0000
vt 1.0000 1.0000
vt 1.0000 0.0000
vt 1.0000 1.0000
vt 1.0000 0.0000
vt 1.0000 1.0000
vt 0.0000 0.0000
vn 0.8165 0.3333 0.4714
vn 0.0000 0.3333 -0.9428
vn -0.8165 0.3333 0.4714
vn 0.0000 -1.0000 0.0000
usemtl None
s off
f 1/1/1 2/2/1 3/3/1
f 1/1/2 3/4/2 4/5/2
f 1/1/3 4/6/3 2/7/3
f 2/8/4 4/6/4 3/3/4
